<svg width="60" height="60" viewBox="0 0 60 60" fill="none" xmlns="http://www.w3.org/2000/svg">
<g clip-path="url(#clip0_2648_28)">
<rect width="60" height="60" fill="white" style="fill:white;fill-opacity:1;"/>
<path d="M43.2334 22.3729C39.4805 22.3729 36.4379 19.3306 36.4379 15.5777C36.4379 11.8245 39.4805 8.78225 43.2334 8.78225C46.9862 8.78225 50.0288 11.8245 50.0288 15.5777C50.0288 19.3306 46.9862 22.3729 43.2334 22.3729ZM31.0843 21.937C28.7397 22.2422 26.5595 20.341 26.2148 17.6908C25.8701 15.0406 27.4913 12.645 29.8359 12.3398C32.1805 12.0349 34.3607 13.9358 34.7054 16.586C35.0501 19.2365 33.429 21.6321 31.0843 21.937ZM22.6429 25.3017C20.4911 25.5818 18.4901 23.8367 18.1738 21.4045C17.8571 18.9719 19.345 16.7734 21.4972 16.4933C23.649 16.2133 25.65 17.9583 25.9664 20.3905C26.283 22.8231 24.7948 25.022 22.6429 25.3017ZM16.3376 30.7317C14.2852 30.9988 12.3833 29.3842 12.0896 27.1253C11.7955 24.8665 13.2213 22.8188 15.2737 22.5517C17.3257 22.2849 19.228 23.8996 19.5217 26.1584C19.8157 28.4172 18.3899 30.4646 16.3376 30.7317ZM11.919 37.0281C10.2469 37.2457 8.69686 35.9301 8.45737 34.0896C8.21824 32.2487 9.37979 30.5805 11.0519 30.3629C12.7244 30.1454 14.2741 31.4609 14.5136 33.3015C14.7531 35.1423 13.5915 36.8105 11.919 37.0281ZM31.9622 -5.1595C-19 -5.1595 -0.236482 -6.5 -0.236505 31.8547C-0.236505 74.3544 -6.89508 61.9962 25.7739 61.3247C24.7334 59.966 23.4831 58.1829 22.234 55.9923C19.819 51.7562 16.7587 46.3894 17.0858 40.7544C17.5558 32.6591 24.8576 26.7455 25.0138 26.855C25.1071 26.92 22.7668 29.2082 21.4103 33.2383C19.1131 40.0639 21.434 46.5502 22.234 48.785C24.7434 55.7984 29.4316 60.0436 31.9622 61.9965C32.01 61.9965 32.057 62.0001 32.1051 62.0001C33.6641 62.0001 35.1955 61.8805 36.6903 61.6514C36.1768 61.3046 35.6063 60.8952 35.0009 60.4195C32.839 58.7212 27.7049 54.1899 25.1168 46.5201C23.8465 42.7561 22.2939 38.1555 24.0871 32.9295C24.277 32.3762 26.8202 25.2812 32.6329 23.8691C35.1065 23.268 38.1789 23.6949 38.2956 24.3839C38.3725 24.8364 37.1599 25.3236 36.2364 25.8252C32.3669 27.9271 30.5361 31.9313 29.7501 33.6501C25.8077 42.2717 33.0426 52.8919 34.383 54.8599C36.0594 57.3201 37.8091 59.119 39.1193 60.3168L39.8266 60.9918C40.776 60.7394 41.707 60.4425 42.6169 60.1021C42.1838 59.7549 41.7375 59.3815 41.2815 58.9782C38.4953 56.5133 34.253 52.7601 32.4268 46.6231C31.7845 44.4638 30.3231 39.553 32.6329 34.165C34.8702 28.9454 39.2525 26.5304 40.6636 25.8252C41.3271 26.2324 42.2539 26.8657 43.2377 27.7813C44.6549 29.1005 45.0896 30.1547 45.3284 31.3924C45.3802 31.6605 45.7344 33.1636 43.6495 36.739C41.7673 39.5882 41.8183 39.6531 40.6636 41.4221C40.0877 42.3047 38.2378 45.6648 38.2956 48.785C38.375 53.0825 41.5171 56.8925 44.5723 59.2852C65 73.5001 63.7635 68.8544 63.7635 31.8547C63.7635 -0.645596 75.4616 -5.1595 31.9622 -5.1595Z" fill="#19A1AF" style="fill:#19A1AF;fill:color(display-p3 0.0980 0.6314 0.6863);fill-opacity:1;"/>
</g>
<defs>
<clipPath id="clip0_2648_28">
<rect width="60" height="60" fill="white" style="fill:white;fill-opacity:1;"/>
</clipPath>
</defs>
</svg>
